<?xml version="1.0" standalone="no"?>
<!DOCTYPE svg PUBLIC "-//W3C//DTD SVG 20010904//EN"
 "http://www.w3.org/TR/2001/REC-SVG-20010904/DTD/svg10.dtd">
<svg version="1.0" xmlns="http://www.w3.org/2000/svg"
 width="400.000000pt" height="400.000000pt" viewBox="0 0 400.000000 400.000000"
 preserveAspectRatio="xMidYMid meet">
<metadata>
Created by potrace 1.11, written by Peter Selinger 2001-2013
</metadata>
<g transform="translate(0.000000,400.000000) scale(0.100000,-0.100000)"
fill="#000000" stroke="none">
<path d="M3300 3985 c0 -9 5 -15 11 -13 6 2 11 8 11 13 0 5 -5 11 -11 13 -6 2
-11 -4 -11 -13z"/>
<path d="M1700 3935 c-14 -8 -38 -14 -53 -15 -42 0 -89 -23 -164 -80 -68 -53
-84 -70 -64 -70 24 0 -14 -40 -44 -46 -47 -9 -169 -85 -153 -95 9 -6 9 -9 1
-9 -6 0 -18 -12 -26 -27 -8 -16 -35 -65 -61 -111 -47 -83 -53 -102 -37 -102 5
0 0 -24 -11 -52 -80 -201 -131 -311 -141 -302 -7 8 -113 -48 -171 -89 -55 -40
-86 -81 -86 -115 0 -13 -5 -32 -11 -44 -12 -23 -2 -40 11 -18 19 31 22 -3 6
-62 -9 -35 -23 -111 -31 -169 -8 -59 -19 -119 -25 -135 -9 -21 -8 -38 4 -69 8
-22 17 -71 20 -108 8 -82 38 -166 70 -196 22 -20 23 -27 18 -119 -4 -96 -4
-99 39 -205 l42 -107 -22 -78 c-68 -231 -100 -276 -197 -286 -121 -13 -190
-28 -237 -54 -64 -34 -150 -128 -189 -205 -17 -34 -34 -64 -37 -67 -11 -8
-116 -142 -134 -172 -12 -19 -17 -48 -17 -95 l0 -68 19 41 c10 23 25 45 32 49
6 5 10 4 7 -1 -3 -5 -17 -34 -31 -65 -25 -56 -26 -60 -26 -323 l-1 -266 1975
0 c1214 0 1975 4 1975 9 0 5 -13 61 -30 125 -16 63 -36 159 -45 213 -22 141
-34 186 -64 251 -42 90 -62 129 -57 109 9 -28 -1 -20 -58 52 -61 77 -179 163
-249 182 -269 74 -361 114 -445 193 -43 40 -77 107 -60 117 10 6 10 18 0 54
-7 25 -12 58 -12 73 0 35 -26 72 -50 72 -22 0 -46 35 -30 45 14 9 12 25 -2 25
-18 0 -52 54 -78 120 -12 30 -35 76 -51 101 -24 39 -29 56 -29 112 0 56 4 70
26 97 30 35 44 28 44 -22 0 -16 4 -28 9 -28 9 0 21 48 21 88 0 26 0 26 15 5
13 -19 13 -25 -1 -58 -11 -27 -12 -36 -3 -33 18 6 86 192 94 254 9 69 -1 108
-36 149 -29 33 -29 35 -20 96 6 34 15 65 20 68 5 4 11 22 14 41 3 30 4 29 5
-12 1 -26 -5 -73 -13 -104 -17 -65 -10 -87 16 -53 17 22 19 23 19 4 0 -40 21
-98 31 -88 7 7 6 45 -1 112 -6 56 -9 105 -6 110 3 5 -1 58 -8 117 -8 60 -12
137 -9 171 8 83 0 104 -44 133 -21 13 -53 47 -72 76 -18 28 -61 81 -95 117
-34 36 -62 74 -63 84 -5 100 -110 306 -197 386 -77 71 -181 145 -231 165 -45
18 -50 23 -47 49 l2 28 -17 -21 -18 -22 -37 27 c-42 29 -46 38 -20 43 12 3 6
8 -18 17 -21 8 -44 28 -58 50 l-23 36 -82 0 c-45 0 -100 3 -122 7 -28 6 -47 4
-65 -7z m275 -45 c8 -13 -5 -13 -25 0 -13 8 -13 10 2 10 9 0 20 -4 23 -10z
m-155 -50 c0 -5 -2 -10 -4 -10 -3 0 -8 5 -11 10 -3 6 -1 10 4 10 6 0 11 -4 11
-10z m-659 -363 c-10 -9 -11 -8 -5 6 3 10 9 15 12 12 3 -3 0 -11 -7 -18z m901
-68 c72 -64 85 -84 113 -177 48 -161 114 -279 205 -368 66 -65 65 -74 -7 -60
-87 17 -247 11 -368 -14 -119 -24 -178 -21 -370 20 -193 42 -358 54 -480 34
l-29 -4 41 39 c48 46 93 153 93 219 0 59 29 111 95 170 85 75 162 110 271 122
50 5 127 17 170 26 56 12 79 13 82 5 2 -7 16 -1 34 14 47 40 83 34 150 -26z
m-1142 -413 c0 -2 -25 -18 -55 -35 -31 -17 -78 -53 -105 -79 -28 -27 -50 -45
-50 -40 0 16 79 84 141 121 65 38 69 40 69 33z m1959 -176 c0 -8 -6 0 -14 19
-8 18 -15 36 -15 40 1 13 29 -45 29 -59z m-2130 3 c-29 -49 -29 -49 -29 -31 0
15 36 68 47 68 2 0 -6 -17 -18 -37z m2094 -40 c9 -29 12 -53 8 -53 -4 0 -13
21 -19 48 -6 26 -14 56 -17 67 -5 15 -4 17 3 5 6 -8 17 -39 25 -67z m-1263 2
c58 -13 155 -30 217 -37 97 -10 126 -10 220 5 59 9 130 19 156 22 72 9 230
-14 321 -47 45 -16 89 -32 99 -35 38 -12 12 -91 -46 -137 -27 -22 -36 -37 -41
-71 -13 -101 -88 -231 -145 -254 -92 -38 -241 -32 -331 14 -98 50 -204 202
-216 310 -7 70 -26 105 -55 105 -38 0 -75 -51 -103 -141 -29 -95 -84 -170
-165 -227 -43 -30 -55 -33 -161 -42 -75 -6 -128 -6 -152 1 -53 14 -128 102
-161 187 -47 123 -100 301 -93 317 11 29 74 45 219 58 166 14 282 7 437 -28z
m194 -171 c3 -9 6 -31 6 -49 0 -116 130 -305 245 -356 125 -55 328 -44 394 22
l31 30 -6 -48 c-3 -26 -13 -70 -21 -98 -9 -27 -17 -76 -19 -107 -1 -32 -6 -63
-10 -69 -4 -7 -29 -57 -56 -112 -44 -91 -59 -110 -156 -204 -121 -118 -203
-164 -351 -202 -161 -40 -258 -24 -381 65 -191 137 -308 303 -330 464 -6 47
-15 118 -20 158 -6 40 -10 90 -10 112 l0 39 48 -24 c46 -24 50 -25 183 -16
129 8 138 10 180 39 90 62 157 152 188 252 29 94 70 144 85 104z m-1065 -302
c1 -20 -3 -31 -9 -27 -5 3 -9 41 -9 83 2 75 2 76 9 27 5 -27 9 -65 9 -83z
m294 57 c-6 -6 -8 -20 -5 -31 4 -15 7 -17 13 -6 17 27 44 -33 46 -102 1 -36 5
-110 10 -165 6 -55 8 -102 6 -104 -6 -8 -55 43 -71 74 -16 32 -45 243 -35 259
4 5 7 19 8 30 3 31 16 56 28 56 8 0 8 -3 0 -11z m1867 -125 c9 -26 9 -51 0
-100 -14 -83 -40 -150 -51 -133 -4 7 -1 22 7 33 18 26 18 40 -1 32 -12 -4 -15
4 -15 39 0 25 5 45 10 45 6 0 10 30 10 71 0 61 2 70 14 59 8 -6 20 -27 26 -46z
m-319 -8 c27 -17 27 -17 12 -64 -8 -26 -18 -82 -23 -125 -5 -42 -16 -92 -24
-110 -7 -17 -16 -40 -19 -49 -9 -26 -43 -11 -61 26 -13 28 -13 40 -1 99 13 64
34 117 35 89 0 -23 17 -3 23 28 4 16 11 30 16 30 6 0 8 -8 5 -17 -4 -12 -3
-14 3 -6 4 6 7 32 5 57 -3 36 -7 43 -20 39 -12 -5 -14 -2 -9 11 4 10 7 23 7
29 1 7 6 5 13 -4 7 -8 24 -23 38 -33z m103 12 c-5 -28 -48 -108 -58 -108 -1 0
-3 15 -4 34 -1 19 -3 40 -4 47 -2 8 3 13 10 11 8 -1 11 2 7 8 -9 15 13 40 36
40 15 0 18 -5 13 -32z m-1937 -140 c-3 -8 -6 -5 -6 6 -1 11 2 17 5 13 3 -3 4
-12 1 -19z m1978 -107 c-8 -17 -18 -31 -20 -31 -6 0 2 41 18 90 l12 35 3 -32
c2 -17 -4 -46 -13 -62z m52 32 c-3 -10 -5 -2 -5 17 0 19 2 27 5 18 2 -10 2
-26 0 -35z m-1901 -282 c9 -36 12 -77 8 -95 -7 -30 -8 -29 -41 44 -29 62 -36
90 -39 160 l-4 85 31 -65 c17 -36 37 -94 45 -129z m1744 99 c0 -10 -4 -21 -10
-25 -5 -3 -7 -13 -3 -23 3 -10 -1 -8 -12 6 -15 20 -15 27 -5 48 14 26 30 23
30 -6z m70 -16 c0 -8 -5 -12 -10 -9 -6 4 -8 11 -5 16 9 14 15 11 15 -7z
m-1584 -29 c-9 -9 -16 -13 -16 -8 0 12 22 34 28 28 2 -2 -3 -11 -12 -20z
m1624 -88 c0 -5 -11 5 -25 21 -14 17 -25 34 -25 38 0 11 49 -48 50 -59z m-425
-144 c-4 -49 -8 -124 -10 -168 -2 -44 -7 -98 -12 -120 -5 -22 -6 -107 -3 -190
4 -82 3 -154 -2 -159 -13 -16 -9 -26 9 -19 9 4 14 2 11 -3 -8 -13 17 -33 30
-25 8 4 8 44 1 136 -5 72 -6 162 -3 202 l7 71 36 -5 c20 -3 48 -17 62 -30 33
-31 46 -83 24 -96 -14 -7 -16 -28 -14 -128 2 -65 0 -122 -4 -125 -4 -4 -7 0
-7 9 0 20 -19 23 -24 5 -15 -58 -28 -115 -29 -125 0 -7 -3 -13 -7 -13 -4 0
-12 -11 -18 -24 -27 -60 -211 -141 -348 -153 -57 -4 -86 -1 -141 15 -38 12
-81 30 -94 40 -13 11 -41 27 -62 37 -20 9 -57 39 -81 66 -49 54 -192 267 -212
315 -15 36 -49 195 -64 303 -6 41 -19 94 -30 119 -11 24 -20 54 -20 66 0 17
11 9 55 -39 30 -33 54 -66 55 -72 0 -7 11 -13 25 -13 13 0 29 -8 34 -17 6 -10
11 -15 11 -11 0 4 22 -4 49 -18 125 -62 303 -51 494 30 21 9 43 14 49 10 7 -5
8 -2 3 6 -6 10 -4 12 8 7 9 -3 16 -3 14 2 -1 4 21 26 48 48 28 22 75 66 105
96 30 31 56 56 58 57 2 0 0 -39 -3 -87z m-1388 -100 c-3 -10 -5 -4 -5 12 0 17
2 24 5 18 2 -7 2 -21 0 -30z m-342 -292 c-6 -5 -34 -19 -64 -31 -55 -21 -183
-100 -195 -119 -4 -6 -12 -11 -19 -11 -19 0 86 100 128 122 22 12 63 27 90 33
65 17 71 17 60 6z m95 -15 c0 -3 -4 -8 -10 -11 -5 -3 -10 -1 -10 4 0 6 5 11
10 11 6 0 10 -2 10 -4z m-81 -47 c-45 -41 -79 -65 -79 -54 0 18 92 90 119 94
2 1 -16 -17 -40 -40z m2414 -23 c24 -24 58 -51 75 -60 39 -20 45 -31 28 -45
-10 -8 -20 -6 -40 10 -14 11 -24 24 -21 29 3 5 0 13 -7 17 -20 13 -93 93 -85
93 4 0 27 -20 50 -44z m-2598 -51 c-28 -23 -45 -31 -45 -21 0 5 63 46 70 46 3
0 -8 -11 -25 -25z m24 -21 c-7 -8 -26 -22 -43 -31 -33 -16 -28 -9 18 25 34 26
44 28 25 6z m-84 -24 c-3 -5 -20 -19 -38 -31 l-32 -22 29 31 c28 30 55 44 41
22z m2880 -21 c55 -15 229 -115 265 -152 32 -33 46 -64 35 -75 -4 -4 -10 -2
-12 5 -3 8 -12 9 -29 3 -13 -5 -24 -6 -24 -2 0 5 -16 14 -35 22 -19 7 -32 18
-29 24 3 6 -1 3 -9 -6 -19 -23 -38 -23 -71 3 -14 11 -26 18 -26 14 0 -4 -12 3
-26 14 -18 14 -31 18 -42 12 -13 -7 -21 -2 -36 22 -11 19 -21 27 -23 20 -3
-10 -10 -10 -24 -2 -16 8 -19 17 -14 47 12 70 19 73 100 51z m-2735 -36 c-1
-10 -47 -63 -55 -63 -13 0 -3 31 17 50 22 20 38 26 38 13z m2957 -33 c60 -14
97 -44 130 -105 18 -33 32 -67 32 -75 0 -10 -2 -11 -6 -2 -2 6 -10 12 -16 12
-7 0 -24 19 -39 43 -35 55 -61 79 -128 117 -30 17 -44 28 -30 24 14 -4 39 -10
57 -14z m-3032 -30 c-3 -5 -12 -10 -18 -10 -7 0 -6 4 3 10 19 12 23 12 15 0z
m3213 -81 c-8 -6 -18 -2 -25 8 -21 27 -15 35 13 17 19 -13 22 -19 12 -25z
m-498 21 c0 -5 -2 -10 -4 -10 -3 0 -8 5 -11 10 -3 6 -1 10 4 10 6 0 11 -4 11
-10z m-3004 -68 c-16 -31 -34 -48 -41 -40 -3 2 7 21 22 41 31 43 41 42 19 -1z
m3580 -24 c15 -28 15 -29 -8 -16 -13 7 -24 13 -25 13 -1 0 -5 14 -9 30 -7 28
-6 29 10 16 10 -8 24 -27 32 -43z"/>
<path d="M1240 2799 c-118 -25 -188 -58 -210 -99 -14 -27 -12 -90 6 -177 26
-127 49 -161 141 -207 45 -22 65 -26 146 -26 80 0 100 4 145 26 80 40 153 161
159 264 7 104 -48 160 -197 199 -91 24 -144 30 -190 20z m170 -45 c92 -17 99
-20 149 -78 32 -37 33 -42 27 -95 -10 -92 -23 -124 -74 -177 -57 -60 -104 -76
-217 -77 -68 0 -80 3 -118 29 -57 40 -116 159 -124 255 -7 74 16 102 112 134
84 28 133 30 245 9z"/>
<path d="M2052 2729 c-100 -9 -165 -37 -182 -78 -9 -23 -7 -43 9 -111 35 -141
101 -228 213 -286 37 -18 63 -24 116 -24 125 0 198 50 228 158 8 31 24 83 35
114 27 83 6 162 -56 202 -48 31 -195 41 -363 25z m218 -29 c80 -9 98 -14 121
-36 48 -46 54 -74 35 -167 -35 -166 -47 -185 -132 -212 -178 -56 -367 86 -389
290 -5 46 -4 63 6 71 28 22 106 46 169 54 92 11 86 11 190 0z"/>
<path d="M1024 2204 c3 -9 6 -25 6 -37 0 -13 4 -17 9 -11 12 11 2 64 -11 64
-6 0 -7 -7 -4 -16z"/>
<path d="M2512 2099 c-19 -23 -20 -29 -8 -29 9 0 17 -6 17 -12 1 -7 5 5 9 27
4 22 7 41 6 41 0 1 -11 -12 -24 -27z"/>
<path d="M1331 1493 c0 -4 4 -17 9 -28 8 -19 9 -19 9 2 1 12 -3 25 -9 28 -5 3
-10 3 -9 -2z"/>
</g>
</svg>
